<svg xmlns="http://www.w3.org/2000/svg" xmlns:xlink="http://www.w3.org/1999/xlink" width="578.984" height="356" viewBox="0 0 578.984 356"><defs><linearGradient id="a" x1="0.979" y1="0.534" x2="0.154" y2="0.5" gradientUnits="objectBoundingBox"><stop offset="0" stop-color="#fff"/><stop offset="1" stop-color="#04ff10"/></linearGradient></defs><g transform="translate(-189 -226)"><g transform="translate(81 20)"><g transform="translate(613.164 334.82) rotate(-16)" fill="none" stroke="#303030" stroke-width="1"><ellipse cx="1.5" cy="10.5" rx="1.5" ry="10.5" stroke="none"/><ellipse cx="1.5" cy="10.5" rx="1" ry="10" fill="none"/></g><g transform="translate(604.359 340.701) rotate(-42)" fill="none" stroke="#303030" stroke-width="1"><ellipse cx="1.5" cy="10.5" rx="1.5" ry="10.5" stroke="none"/><ellipse cx="1.5" cy="10.5" rx="1" ry="10" fill="none"/></g><g transform="translate(607.951 338.157) rotate(-30)" fill="none" stroke="#303030" stroke-width="1"><ellipse cx="1.5" cy="10.5" rx="1.5" ry="10.5" stroke="none"/><ellipse cx="1.5" cy="10.5" rx="1" ry="10" fill="none"/></g><g transform="translate(635.564 338.798) rotate(43)" fill="none" stroke="#303030" stroke-width="1"><ellipse cx="1.5" cy="10.5" rx="1.5" ry="10.5" stroke="none"/><ellipse cx="1.5" cy="10.5" rx="1" ry="10" fill="none"/></g><g transform="matrix(0.875, 0.485, -0.485, 0.875, 631.279, 335.589)" fill="none" stroke="#303030" stroke-width="1"><ellipse cx="1.5" cy="10.5" rx="1.5" ry="10.5" stroke="none"/><ellipse cx="1.5" cy="10.5" rx="1" ry="10" fill="none"/></g><g transform="translate(625.585 333.949) rotate(14)" fill="none" stroke="#303030" stroke-width="1"><ellipse cx="1.5" cy="10.5" rx="1.5" ry="10.5" stroke="none"/><ellipse cx="1.5" cy="10.5" rx="1" ry="10" fill="none"/></g><g transform="translate(620 333)" fill="none" stroke="#303030" stroke-width="1"><ellipse cx="1.5" cy="10.5" rx="1.5" ry="10.5" stroke="none"/><ellipse cx="1.5" cy="10.5" rx="1" ry="10" fill="none"/></g></g><g transform="translate(-101 20)"><g transform="translate(613.164 334.82) rotate(-16)" fill="none" stroke="#303030" stroke-width="1"><ellipse cx="1.5" cy="10.5" rx="1.5" ry="10.5" stroke="none"/><ellipse cx="1.5" cy="10.5" rx="1" ry="10" fill="none"/></g><g transform="translate(604.359 340.701) rotate(-42)" fill="none" stroke="#303030" stroke-width="1"><ellipse cx="1.5" cy="10.5" rx="1.5" ry="10.5" stroke="none"/><ellipse cx="1.5" cy="10.5" rx="1" ry="10" fill="none"/></g><g transform="translate(607.951 338.157) rotate(-30)" fill="none" stroke="#303030" stroke-width="1"><ellipse cx="1.5" cy="10.5" rx="1.5" ry="10.5" stroke="none"/><ellipse cx="1.5" cy="10.5" rx="1" ry="10" fill="none"/></g><g transform="translate(635.564 338.798) rotate(43)" fill="none" stroke="#303030" stroke-width="1"><ellipse cx="1.5" cy="10.5" rx="1.5" ry="10.5" stroke="none"/><ellipse cx="1.5" cy="10.5" rx="1" ry="10" fill="none"/></g><g transform="matrix(0.875, 0.485, -0.485, 0.875, 631.279, 335.589)" fill="none" stroke="#303030" stroke-width="1"><ellipse cx="1.5" cy="10.5" rx="1.5" ry="10.5" stroke="none"/><ellipse cx="1.5" cy="10.5" rx="1" ry="10" fill="none"/></g><g transform="translate(625.585 333.949) rotate(14)" fill="none" stroke="#303030" stroke-width="1"><ellipse cx="1.5" cy="10.5" rx="1.5" ry="10.5" stroke="none"/><ellipse cx="1.5" cy="10.5" rx="1" ry="10" fill="none"/></g><g transform="translate(620 333)" fill="none" stroke="#303030" stroke-width="1"><ellipse cx="1.5" cy="10.5" rx="1.5" ry="10.5" stroke="none"/><ellipse cx="1.5" cy="10.5" rx="1" ry="10" fill="none"/></g></g><g transform="translate(81 25)"><g transform="translate(613.164 334.82) rotate(-16)" fill="none" stroke="#303030" stroke-width="1"><ellipse cx="1.5" cy="10.5" rx="1.5" ry="10.5" stroke="none"/><ellipse cx="1.5" cy="10.5" rx="1" ry="10" fill="none"/></g><g transform="translate(604.359 340.701) rotate(-42)" fill="none" stroke="#303030" stroke-width="1"><ellipse cx="1.5" cy="10.5" rx="1.5" ry="10.5" stroke="none"/><ellipse cx="1.5" cy="10.5" rx="1" ry="10" fill="none"/></g><g transform="translate(607.951 338.157) rotate(-30)" fill="none" stroke="#303030" stroke-width="1"><ellipse cx="1.5" cy="10.5" rx="1.5" ry="10.5" stroke="none"/><ellipse cx="1.5" cy="10.5" rx="1" ry="10" fill="none"/></g><g transform="translate(635.564 338.798) rotate(43)" fill="none" stroke="#303030" stroke-width="1"><ellipse cx="1.5" cy="10.5" rx="1.5" ry="10.5" stroke="none"/><ellipse cx="1.5" cy="10.5" rx="1" ry="10" fill="none"/></g><g transform="matrix(0.875, 0.485, -0.485, 0.875, 631.279, 335.589)" fill="none" stroke="#303030" stroke-width="1"><ellipse cx="1.5" cy="10.5" rx="1.5" ry="10.5" stroke="none"/><ellipse cx="1.5" cy="10.5" rx="1" ry="10" fill="none"/></g><g transform="translate(625.585 333.949) rotate(14)" fill="none" stroke="#303030" stroke-width="1"><ellipse cx="1.5" cy="10.5" rx="1.5" ry="10.5" stroke="none"/><ellipse cx="1.5" cy="10.5" rx="1" ry="10" fill="none"/></g><g transform="translate(620 333)" fill="none" stroke="#303030" stroke-width="1"><ellipse cx="1.5" cy="10.5" rx="1.5" ry="10.5" stroke="none"/><ellipse cx="1.5" cy="10.5" rx="1" ry="10" fill="none"/></g></g><g transform="translate(-101 25)"><g transform="translate(613.164 334.82) rotate(-16)" fill="none" stroke="#303030" stroke-width="1"><ellipse cx="1.5" cy="10.5" rx="1.5" ry="10.5" stroke="none"/><ellipse cx="1.5" cy="10.5" rx="1" ry="10" fill="none"/></g><g transform="translate(604.359 340.701) rotate(-42)" fill="none" stroke="#303030" stroke-width="1"><ellipse cx="1.5" cy="10.5" rx="1.5" ry="10.5" stroke="none"/><ellipse cx="1.5" cy="10.5" rx="1" ry="10" fill="none"/></g><g transform="translate(607.951 338.157) rotate(-30)" fill="none" stroke="#303030" stroke-width="1"><ellipse cx="1.5" cy="10.5" rx="1.5" ry="10.5" stroke="none"/><ellipse cx="1.5" cy="10.5" rx="1" ry="10" fill="none"/></g><g transform="translate(635.564 338.798) rotate(43)" fill="none" stroke="#303030" stroke-width="1"><ellipse cx="1.5" cy="10.5" rx="1.5" ry="10.5" stroke="none"/><ellipse cx="1.5" cy="10.5" rx="1" ry="10" fill="none"/></g><g transform="matrix(0.875, 0.485, -0.485, 0.875, 631.279, 335.589)" fill="none" stroke="#303030" stroke-width="1"><ellipse cx="1.5" cy="10.5" rx="1.5" ry="10.5" stroke="none"/><ellipse cx="1.5" cy="10.5" rx="1" ry="10" fill="none"/></g><g transform="translate(625.585 333.949) rotate(14)" fill="none" stroke="#303030" stroke-width="1"><ellipse cx="1.5" cy="10.5" rx="1.5" ry="10.5" stroke="none"/><ellipse cx="1.5" cy="10.5" rx="1" ry="10" fill="none"/></g><g transform="translate(620 333)" fill="none" stroke="#303030" stroke-width="1"><ellipse cx="1.5" cy="10.5" rx="1.5" ry="10.5" stroke="none"/><ellipse cx="1.5" cy="10.5" rx="1" ry="10" fill="none"/></g></g><ellipse cx="158" cy="167.5" rx="158" ry="167.5" transform="translate(189 232)" fill="url(#a)"/><g transform="translate(81 24)"><path d="M8.494,1469.877H113.1l33.081,62.586-2.812,1.639-4.787-1.639-168.5-5.3h-4.47v-3.783Z" transform="translate(479 -1199)" fill="#5e2323" stroke="#000" stroke-width="2"/><path d="M-12.412,1527.719l30.318-57.585" transform="translate(479 -1199)" fill="#5e2323" stroke="#000" stroke-width="2"/><path d="M2.747,1527.719l23.3-57.991" transform="translate(479 -1199)" fill="#5e2323" stroke="#000" stroke-width="2"/><path d="M16.889,1528.747l15.221-37.465,4.206-21.351" transform="translate(479.311 -1199)" fill="#5e2323" stroke="#000" stroke-width="2"/><path d="M33.981,1529.347l10.581-43.341,2.238-16.075" transform="translate(479 -1199)" fill="#5e2323" stroke="#000" stroke-width="2"/><path d="M50.666,1529.347l4.07-59.416" transform="translate(479 -1199)" fill="#5e2323" stroke="#000" stroke-width="2"/><path d="M62,1530.414l-1.156-60.891" transform="translate(479 -1199)" fill="#5e2323" stroke="#000" stroke-width="2"/><path d="M79.763,1530.472l-12.411-61.151" transform="translate(479.166 -1198.797)" fill="#5e2323" stroke="#000" stroke-width="2"/><path d="M92.192,1530.676l-18.626-60.462" transform="translate(479 -1199)" fill="#5e2323" stroke="#000" stroke-width="2"/><path d="M107.374,1531.57l-25.826-61.983" transform="translate(479 -1199)" fill="#5e2323" stroke="#000" stroke-width="2"/><path d="M120.679,1531.57l-29.9-61.357" transform="translate(479 -1199)" fill="#5e2323" stroke="#000" stroke-width="2"/><path d="M133.2,1532.2l-31.617-62.3" transform="translate(479 -1199)" fill="#5e2323" stroke="#000" stroke-width="2"/><rect width="22" height="4" transform="matrix(0.921, -0.391, 0.391, 0.921, 450.093, 324.457)"/><rect width="26" height="4" transform="matrix(0.921, -0.391, 0.391, 0.921, 451.093, 316.457)"/><rect width="22" height="4" transform="matrix(0.921, -0.391, 0.391, 0.921, 459.854, 305.285)"/><rect width="18" height="4" transform="matrix(0.921, -0.391, 0.391, 0.921, 468.457, 294.331)"/><rect width="14" height="4" transform="matrix(0.921, -0.391, 0.391, 0.921, 476.219, 284.159)"/><rect width="10" height="4" transform="matrix(0.921, -0.391, 0.391, 0.921, 483.821, 275.205)"/><rect width="3" height="8" transform="matrix(0.809, -0.588, 0.588, 0.809, 469.935, 322.646)"/><rect width="3" height="13" transform="matrix(0.809, -0.588, 0.588, 0.809, 475.935, 310.646)"/><rect width="3" height="11" transform="matrix(0.809, -0.588, 0.588, 0.809, 479.523, 304.455)"/><rect width="3" height="11" transform="matrix(0.809, -0.588, 0.588, 0.809, 482.523, 297.455)"/><rect width="3" height="11" transform="matrix(0.809, -0.588, 0.588, 0.809, 485.523, 291.455)"/><rect width="3" height="9" transform="matrix(0.809, -0.588, 0.588, 0.809, 489.111, 286.264)"/><rect width="3" height="8" transform="matrix(0.809, -0.588, 0.588, 0.809, 492.111, 280.264)"/><rect width="3" height="8" transform="matrix(0.809, -0.588, 0.588, 0.809, 495.111, 274.264)"/><rect width="3" height="5" transform="matrix(0.438, 0.899, -0.899, 0.438, 508.816, 270.393)"/><rect width="3" height="13" transform="matrix(0.809, -0.588, 0.588, 0.809, 472.935, 316.646)"/><rect width="3" height="18" transform="matrix(0.469, 0.883, -0.883, 0.469, 498.833, 318.307)"/><rect width="3" height="8" transform="translate(505.644 328.244) rotate(141)"/><rect width="3" height="8" transform="translate(524.059 329.905) rotate(-133)"/><rect width="3" height="16" transform="translate(513.049 328.684) rotate(141)"/><rect width="3" height="20" transform="translate(515.908 328.879) rotate(-132)"/><rect width="3" height="15" transform="translate(515.42 320.907) rotate(141)"/><rect width="3" height="18" transform="translate(517.964 319.156) rotate(-132)"/><rect width="3" height="14" transform="translate(517.42 313.907) rotate(141)"/><rect width="3" height="8" transform="translate(540.603 282.996) rotate(133)"/><rect width="3" height="8" transform="translate(540.603 289.996) rotate(133)"/><rect width="3" height="9" transform="translate(540.335 297.678) rotate(133)"/><rect width="3" height="9" transform="translate(540.335 305.678) rotate(133)"/><rect width="3" height="11" transform="translate(540.797 314.042) rotate(133)"/><rect width="3" height="11" transform="translate(540.797 322.042) rotate(133)"/><rect width="3" height="12" transform="translate(540.797 329.042) rotate(133)"/><rect width="3" height="12" transform="translate(519.161 305.353) rotate(141)"/><rect width="3" height="15" transform="translate(520.764 307.763) rotate(-132)"/><rect width="3" height="12" transform="translate(521.161 298.353) rotate(141)"/><rect width="3" height="13" transform="translate(522.764 298.763) rotate(-132)"/><rect width="3" height="11" transform="translate(522.532 290.576) rotate(141)"/><rect width="3" height="10" transform="translate(525.564 289.371) rotate(-132)"/><rect width="3" height="12" transform="translate(524.161 283.353) rotate(141)"/><rect width="3" height="10" transform="translate(526.251 281.425) rotate(-132)"/><rect width="3" height="6" transform="translate(525.644 275.244) rotate(141)"/><rect width="3" height="6" transform="translate(539.853 275.636) rotate(130)"/><rect width="3" height="18" transform="matrix(0.469, 0.883, -0.883, 0.469, 501.833, 310.307)"/><rect width="3" height="19" transform="matrix(0.469, 0.883, -0.883, 0.469, 505.716, 300.838)"/><rect width="3" height="19" transform="matrix(0.469, 0.883, -0.883, 0.469, 509.716, 291.838)"/><rect width="3" height="18" transform="matrix(0.469, 0.883, -0.883, 0.469, 511.833, 283.307)"/><rect width="3" height="14" transform="matrix(0.469, 0.883, -0.883, 0.469, 513.067, 274.246)"/><rect width="3" height="7" transform="matrix(0.799, 0.602, -0.602, 0.799, 555.408, 323.802)"/><rect width="3" height="17" transform="matrix(0.799, 0.602, -0.602, 0.799, 554.019, 316.01)"/><rect width="3" height="19" transform="matrix(0.799, 0.602, -0.602, 0.799, 552.223, 307.413)"/><rect width="3" height="14" transform="matrix(0.799, 0.602, -0.602, 0.799, 548.621, 292.212)"/><rect width="3" height="10" transform="matrix(0.799, 0.602, -0.602, 0.799, 546.019, 278.01)"/><rect width="3" height="7" transform="matrix(0.799, 0.602, -0.602, 0.799, 544.417, 271.809)"/><rect width="3" height="12" transform="matrix(0.799, 0.602, -0.602, 0.799, 547.019, 285.01)"/><rect width="3" height="17" transform="matrix(0.799, 0.602, -0.602, 0.799, 550.621, 299.212)"/><rect width="7" height="3" transform="matrix(0.848, 0.53, -0.53, 0.848, 550.327, 278.373)"/><rect width="7" height="3" transform="matrix(0.848, 0.53, -0.53, 0.848, 548.327, 271.373)"/><rect width="8" height="3" transform="matrix(0.848, 0.53, -0.53, 0.848, 551.327, 285.373)"/><rect width="9" height="3" transform="matrix(0.848, 0.53, -0.53, 0.848, 553.327, 293.373)"/><rect width="11" height="3" transform="matrix(0.848, 0.53, -0.53, 0.848, 554.479, 300.843)"/><rect width="12" height="3" transform="matrix(0.848, 0.53, -0.53, 0.848, 556.479, 308.843)"/><rect width="13" height="3" transform="matrix(0.848, 0.53, -0.53, 0.848, 557.631, 316.313)"/><rect width="11" height="3" transform="matrix(0.848, 0.53, -0.53, 0.848, 559.631, 323.313)"/><rect width="3" height="14" transform="matrix(0.809, 0.588, -0.588, 0.809, 578.638, 317.882)"/><rect width="3" height="13" transform="matrix(0.809, 0.588, -0.588, 0.809, 575.638, 310.882)"/><rect width="3" height="13" transform="matrix(0.809, 0.588, -0.588, 0.809, 573.638, 304.882)"/><rect width="3" height="12" transform="matrix(0.809, 0.588, -0.588, 0.809, 570.638, 298.882)"/><rect width="3" height="11" transform="matrix(0.809, 0.588, -0.588, 0.809, 568.638, 292.882)"/><rect width="3" height="10" transform="matrix(0.809, 0.588, -0.588, 0.809, 565.638, 286.882)"/><rect width="3" height="7" transform="matrix(0.809, 0.588, -0.588, 0.809, 558.05, 270.691)"/><rect width="3" height="8" transform="matrix(0.809, 0.588, -0.588, 0.809, 560.638, 275.882)"/><rect width="3" height="10" transform="matrix(0.809, 0.588, -0.588, 0.809, 563.638, 280.882)"/><rect width="3" height="8" transform="matrix(0.809, 0.588, -0.588, 0.809, 580.638, 323.882)"/><rect width="14" height="3" transform="translate(580.196 311.605) rotate(25)" fill="#fff"/><rect width="7" height="3" transform="translate(564.915 270.873) rotate(25)"/><rect width="10" height="3" transform="translate(565.009 275.45) rotate(25)"/><rect width="11" height="3" transform="translate(568.009 282.45) rotate(25)"/><rect width="12" height="3" transform="translate(571.102 290.027) rotate(25)"/><rect width="12" height="3" transform="translate(574.102 297.027) rotate(25)"/><rect width="14" height="3" transform="translate(576.196 303.605) rotate(25)"/><rect width="14" height="3" transform="translate(580.196 311.605) rotate(25)"/><rect width="14" height="3" transform="translate(583.196 318.605) rotate(25)"/><rect width="11" height="3" transform="translate(586.196 325.605) rotate(25)"/><rect width="11" height="3" transform="matrix(0.574, -0.819, 0.819, 0.574, 598.269, 329.505)"/><rect width="11" height="3" transform="matrix(0.574, -0.819, 0.819, 0.574, 595.269, 323.505)"/><rect width="11" height="3" transform="matrix(0.574, -0.819, 0.819, 0.574, 592.269, 318.505)"/><rect width="10" height="3" transform="matrix(0.574, -0.819, 0.819, 0.574, 589.843, 311.686)"/><rect width="10" height="3" transform="matrix(0.574, -0.819, 0.819, 0.574, 586.843, 305.686)"/><rect width="6" height="3" transform="matrix(0.574, -0.819, 0.819, 0.574, 571.99, 276.047)"/><rect width="10" height="3" transform="matrix(0.574, -0.819, 0.819, 0.574, 574.843, 281.686)"/><rect width="10" height="3" transform="matrix(0.574, -0.819, 0.819, 0.574, 577.843, 288.686)"/><rect width="10" height="3" transform="matrix(0.574, -0.819, 0.819, 0.574, 580.843, 294.686)"/><rect width="10" height="3" transform="matrix(0.574, -0.819, 0.819, 0.574, 583.843, 299.686)"/><rect width="7" height="3" transform="matrix(0.574, -0.819, 0.819, 0.574, 602.806, 331.428)"/><rect width="7" height="3" transform="matrix(0.934, 0.358, -0.358, 0.934, 611.519, 327.815)"/><rect width="12" height="3" transform="translate(583.967 272.603) rotate(20)"/><rect width="13" height="3" transform="translate(587.027 279.261) rotate(20)"/><rect width="12" height="3" transform="translate(591.027 286.261) rotate(20)"/><rect width="13" height="3" transform="translate(594.027 293.261) rotate(20)"/><rect width="13" height="3" transform="translate(598.027 300.261) rotate(20)"/><rect width="14" height="3" transform="translate(601.027 307.261) rotate(20)"/><rect width="14" height="3" transform="translate(605.027 314.261) rotate(20)"/><rect width="14" height="3" transform="translate(608.23 320.693) rotate(22)"/><path d="M-13,1528.1v11.344H121.951v-7" transform="translate(479 -1199)" fill="#5e2323" stroke="#000" stroke-width="1"/><circle cx="3.5" cy="3.5" r="3.5" transform="translate(489 331)"/><circle cx="3.5" cy="3.5" r="3.5" transform="translate(501 331)"/><circle cx="3.5" cy="3.5" r="3.5" transform="translate(511 332)"/><circle cx="3.5" cy="3.5" r="3.5" transform="translate(523 332)"/><circle cx="3.5" cy="3.5" r="3.5" transform="translate(533 332)"/><circle cx="3.5" cy="3.5" r="3.5" transform="translate(545 332)"/><circle cx="3" cy="3" r="3" transform="translate(558 333)"/><circle cx="3" cy="3" r="3" transform="translate(569 333)"/><circle cx="3" cy="3" r="3" transform="translate(578 333)"/><circle cx="3" cy="3" r="3" transform="translate(588 333)"/><circle cx="3.5" cy="3.5" r="3.5" transform="translate(479 331)"/><circle cx="3.5" cy="3.5" r="3.5" transform="translate(469 331)"/><path d="M-13,1539.9v2.843H121.811v-3.658" transform="translate(479 -1199)" fill="none" stroke="#000" stroke-width="1"/><path d="M-13,1542.739v12.48H121.292v-12.207" transform="translate(478.486 -1199)" fill="#5e2323" stroke="#000" stroke-width="1"/><path d="M-11.216,1542.739v12.128" transform="translate(479 -1199)" fill="none" stroke="#fff" stroke-width="1"/><path d="M-11.216,1542.739v12.128" transform="translate(494 -1199)" fill="none" stroke="#fff" stroke-width="1"/><path d="M-11.216,1542.739v12.128" transform="translate(510 -1199)" fill="none" stroke="#fff" stroke-width="1"/><path d="M-11.216,1542.739v12.128" transform="translate(523 -1199)" fill="none" stroke="#fff" stroke-width="1"/><path d="M-11.216,1542.739v12.128" transform="translate(539 -1199)" fill="none" stroke="#fff" stroke-width="1"/><path d="M-11.216,1542.739v12.128" transform="translate(556 -1199)" fill="none" stroke="#fff" stroke-width="1"/><path d="M-11.216,1542.739v12.128" transform="translate(574 -1199)" fill="none" stroke="#fff" stroke-width="1"/><path d="M-11.216,1542.739v12.128" transform="translate(587 -1199)" fill="none" stroke="#fff" stroke-width="1"/><path d="M-11.216,1542.739v12.128" transform="translate(602 -1199)" fill="none" stroke="#fff" stroke-width="1"/><path d="M-11.216,1542.739v12.128" transform="translate(481 -1199)" fill="none" stroke="#fff" stroke-width="1"/><path d="M-11.216,1542.739v12.128" transform="translate(496 -1199)" fill="none" stroke="#fff" stroke-width="1"/><path d="M-11.216,1542.739v12.128" transform="translate(512 -1199)" fill="none" stroke="#fff" stroke-width="1"/><path d="M-11.216,1542.739v12.128" transform="translate(525 -1199)" fill="none" stroke="#fff" stroke-width="1"/><path d="M-11.216,1542.739v12.128" transform="translate(541 -1199)" fill="none" stroke="#fff" stroke-width="1"/><path d="M-11.216,1542.739v12.128" transform="translate(558 -1199)" fill="none" stroke="#fff" stroke-width="1"/><path d="M-11.216,1542.739v12.128" transform="translate(576 -1199)" fill="none" stroke="#fff" stroke-width="1"/><path d="M-11.216,1542.739v12.128" transform="translate(589 -1199)" fill="none" stroke="#fff" stroke-width="1"/><path d="M-11.216,1542.739v12.128" transform="translate(604 -1199)" fill="none" stroke="#fff" stroke-width="1"/><g style="isolation:isolate"><path d="M-8.6,1543.231,2.12,1554.544" transform="translate(480 -1199)" fill="none" stroke="#fff" stroke-width="2"/><path d="M-8.6,1543.23,1.986,1553.9" transform="translate(2013.605 164.2) rotate(83)" fill="none" stroke="#fff" stroke-width="2"/></g><g transform="translate(16)" style="isolation:isolate"><path d="M-8.6,1543.231,2.12,1554.544" transform="translate(480 -1199)" fill="none" stroke="#fff" stroke-width="2"/><path d="M-8.6,1543.23,1.986,1553.9" transform="translate(2013.605 164.2) rotate(83)" fill="none" stroke="#fff" stroke-width="2"/></g><g transform="translate(30)" style="isolation:isolate"><path d="M-8.6,1543.231l10.1,11.313" transform="translate(480 -1199)" fill="none" stroke="#fff" stroke-width="2"/><path d="M0,0,10.643,10.176" transform="translate(480.276 343.739) rotate(83)" fill="none" stroke="#fff" stroke-width="2"/></g><g transform="translate(43.631)" style="isolation:isolate"><path d="M-8.6,1543.231l12.159,11.637" transform="translate(480 -1199)" fill="none" stroke="#fff" stroke-width="2"/><path d="M0,0,10.773,11.781" transform="translate(482.093 343.739) rotate(83)" fill="none" stroke="#fff" stroke-width="2"/></g><g transform="translate(58.98)" style="isolation:isolate"><path d="M-8.6,1543.231,3.3,1554.867" transform="translate(480 -1199)" fill="none" stroke="#fff" stroke-width="2"/><path d="M0,0,10.8,11.531" transform="translate(481.835 343.739) rotate(83)" fill="none" stroke="#fff" stroke-width="2"/></g><g transform="translate(77.826)" style="isolation:isolate"><path d="M-8.6,1543.231l10.048,11.637" transform="translate(480 -1199)" fill="none" stroke="#fff" stroke-width="2"/><path d="M0,0,10.982,10.077" transform="translate(480.179 343.739) rotate(83)" fill="none" stroke="#fff" stroke-width="2"/></g><g transform="translate(94.826)" style="isolation:isolate"><path d="M-8.6,1543.231l8.035,11.637" transform="translate(480 -1199)" fill="none" stroke="#fff" stroke-width="2"/><path d="M0,0,11.169,8.55" transform="translate(478.403 343.739) rotate(83)" fill="none" stroke="#fff" stroke-width="2"/></g><g transform="translate(109.826)" style="isolation:isolate"><path d="M-8.6,1543.231l8.035,11.637" transform="translate(480 -1199)" fill="none" stroke="#fff" stroke-width="2"/><path d="M0,0,11.169,8.55" transform="translate(478.403 343.739) rotate(83)" fill="none" stroke="#fff" stroke-width="2"/></g><g transform="translate(123.893)" style="isolation:isolate"><path d="M-8.6,1543.231l5.225,11.637" transform="translate(478.743 -1199)" fill="none" stroke="#fff" stroke-width="2"/><path d="M0,0,11.517,5.714" transform="translate(474.941 343.739) rotate(83)" fill="none" stroke="#fff" stroke-width="2"/></g><path d="M-13,1555.219v7.629H119.981v-7.629" transform="translate(479 -1199)" fill="#5e2323" stroke="#000" stroke-width="2"/><path d="M-12.293,1556.808l10.785,5.129L8.6,1556.808l16.819,5.129,8.145-5.129,22.475,5.129,8.522-6.562,16.064,6.562,5.656-6.562,10.106,6.562,10.483-6.562,12.143,6.562" transform="translate(479 -1199)" fill="none" stroke="#fff" stroke-width="2"/><path d="M533.56,1478.544v50.4l11.646,4.093,18.634-1.292h18.211l24.563,1.292,8.894,1.077,14.4,1.077,19.9,1.723,16.729,3.231v-61.606Z" transform="translate(-67.56 -1113)" fill="none" stroke="#000" stroke-width="2"/><g transform="translate(522 381)" fill="#5e2323"><path d="M 23.08040428161621 38.89906311035156 L 0.9844128489494324 37.58974838256836 L 0.9995872974395752 1.000002503395081 L 23.0020637512207 1.000002503395081 L 23.08040428161621 38.89906311035156 Z" stroke="none"/><path d="M 1.999172210693359 2.000003814697266 L 1.984804153442383 36.64727020263672 L 22.07820701599121 37.83792114257813 L 22.00412750244141 2.000003814697266 L 1.999172210693359 2.000003814697266 M 1.9073486328125e-06 3.814697265625e-06 L 24.00000190734863 3.814697265625e-06 L 24.08260154724121 39.96020126342773 L -0.01597785949707031 38.53222274780273 L 1.9073486328125e-06 3.814697265625e-06 Z" stroke="none"/></g><g transform="translate(484 397)" fill="#5e2323" stroke="#000" stroke-width="1"><rect width="18" height="16" stroke="none"/><rect x="0.5" y="0.5" width="17" height="15" fill="none"/></g><g transform="translate(563.098 397)" fill="#5e2323" stroke="#000" stroke-width="1"><rect width="18" height="16" stroke="none"/><rect x="0.5" y="0.5" width="17" height="15" fill="none"/></g><g transform="translate(467 381)" fill="#5e2323" stroke="#000" stroke-width="1"><rect width="18" height="16" stroke="none"/><rect x="0.5" y="0.5" width="17" height="15" fill="none"/></g><g transform="translate(580.098 381)" fill="#5e2323" stroke="#000" stroke-width="1"><rect width="18" height="16" stroke="none"/><rect x="0.5" y="0.5" width="17" height="15" fill="none"/></g><g transform="translate(484 366)" fill="#5e2323" stroke="#000" stroke-width="1"><rect width="18" height="16" stroke="none"/><rect x="0.5" y="0.5" width="17" height="15" fill="none"/></g><g transform="translate(563.098 366)" fill="#5e2323" stroke="#000" stroke-width="1"><rect width="18" height="16" stroke="none"/><rect x="0.5" y="0.5" width="17" height="15" fill="none"/></g><path d="M-12,1567.109H5.1" transform="translate(479 -1199)" fill="none" stroke="#000" stroke-width="1"/><path d="M5.1,1567.109H-12" transform="translate(593 -1199)" fill="none" stroke="#040404" stroke-width="1"/><path d="M-12,1567.109H5.1" transform="translate(497 -1183)" fill="none" stroke="#000" stroke-width="1"/><path d="M5.1,1567.109H-12" transform="translate(575 -1183)" fill="none" stroke="#000" stroke-width="1"/><path d="M-12,1567.109H5.1" transform="translate(497 -1183)" fill="none" stroke="#000" stroke-width="1"/><path d="M5.1,1567.109H-12" transform="translate(575 -1183)" fill="none" stroke="#000" stroke-width="1"/><path d="M-12,1567.109H5.1" transform="translate(479 -1168)" fill="none" stroke="#000" stroke-width="1"/><path d="M5.1,1567.109H-12" transform="translate(593 -1168)" fill="none" stroke="#000" stroke-width="1"/><path d="M-12,1567.109H5.1" transform="translate(479 -1188)" fill="none" stroke="#000" stroke-width="1"/><path d="M5.1,1567.109H-12" transform="translate(593 -1188)" fill="none" stroke="#040404" stroke-width="1"/><path d="M-12,1567.109H5.1" transform="translate(497 -1172)" fill="none" stroke="#000" stroke-width="1"/><path d="M5.1,1567.109H-12" transform="translate(575 -1172)" fill="none" stroke="#000" stroke-width="1"/><path d="M-12,1567.109H5.1" transform="translate(497 -1172)" fill="none" stroke="#000" stroke-width="1"/><path d="M5.1,1567.109H-12" transform="translate(575 -1172)" fill="none" stroke="#000" stroke-width="1"/><path d="M-12,1567.109H5.1" transform="translate(479 -1157)" fill="none" stroke="#000" stroke-width="1"/><path d="M5.1,1567.109H-12" transform="translate(593 -1157)" fill="none" stroke="#000" stroke-width="1"/><path d="M-12,1567.109H5.1" transform="translate(479 -1155)" fill="none" stroke="#000" stroke-width="1"/><path d="M5.1,1567.109H-12" transform="translate(593 -1155)" fill="none" stroke="#000" stroke-width="1"/><path d="M-12,1567.109H5.1" transform="translate(479 -1190.401)" fill="none" stroke="#000" stroke-width="1"/><path d="M5.1,1567.109H-12" transform="translate(593 -1190.401)" fill="none" stroke="#040404" stroke-width="1"/><path d="M-12,1567.109H5.1" transform="translate(497 -1174.401)" fill="none" stroke="#000" stroke-width="1"/><path d="M5.1,1567.109H-12" transform="translate(575 -1174.401)" fill="none" stroke="#000" stroke-width="1"/><path d="M-12,1567.109H5.1" transform="translate(497 -1174.401)" fill="none" stroke="#000" stroke-width="1"/><path d="M5.1,1567.109H-12" transform="translate(575 -1174.401)" fill="none" stroke="#000" stroke-width="1"/><path d="M-12,1567.109H5.1" transform="translate(479 -1159.401)" fill="none" stroke="#000" stroke-width="1"/><path d="M5.1,1567.109H-12" transform="translate(593 -1159.401)" fill="none" stroke="#000" stroke-width="1"/><path d="M-12,1567.109H5.1" transform="translate(479 -1192.802)" fill="none" stroke="#000" stroke-width="1"/><path d="M5.1,1567.109H-12" transform="translate(593 -1192.802)" fill="none" stroke="#040404" stroke-width="1"/><path d="M-12,1567.109H5.1" transform="translate(497 -1176.802)" fill="none" stroke="#000" stroke-width="1"/><path d="M5.1,1567.109H-12" transform="translate(575 -1176.802)" fill="none" stroke="#000" stroke-width="1"/><path d="M-12,1567.109H5.1" transform="translate(497 -1176.802)" fill="none" stroke="#000" stroke-width="1"/><path d="M5.1,1567.109H-12" transform="translate(575 -1176.802)" fill="none" stroke="#000" stroke-width="1"/><path d="M-12,1567.109H5.1" transform="translate(479 -1161.802)" fill="none" stroke="#000" stroke-width="1"/><path d="M5.1,1567.109H-12" transform="translate(593 -1161.802)" fill="none" stroke="#000" stroke-width="1"/><path d="M-12,1567.109H5.1" transform="translate(479 -1195)" fill="none" stroke="#000" stroke-width="1"/><path d="M5.1,1567.109H-12" transform="translate(593 -1195)" fill="none" stroke="#040404" stroke-width="1"/><path d="M-12,1567.109H5.1" transform="translate(497 -1179)" fill="none" stroke="#000" stroke-width="1"/><path d="M5.1,1567.109H-12" transform="translate(575 -1179)" fill="none" stroke="#000" stroke-width="1"/><path d="M-12,1567.109H5.1" transform="translate(497 -1179)" fill="none" stroke="#000" stroke-width="1"/><path d="M5.1,1567.109H-12" transform="translate(575 -1179)" fill="none" stroke="#000" stroke-width="1"/><path d="M-12,1567.109H5.1" transform="translate(479 -1164)" fill="none" stroke="#000" stroke-width="1"/><path d="M5.1,1567.109H-12" transform="translate(593 -1164)" fill="none" stroke="#000" stroke-width="1"/><path d="M-12,1567.109H5.1" transform="translate(479 -1197)" fill="none" stroke="#000" stroke-width="1"/><path d="M5.1,1567.109H-12" transform="translate(593 -1197)" fill="none" stroke="#040404" stroke-width="1"/><path d="M-12,1567.109H5.1" transform="translate(497 -1181)" fill="none" stroke="#000" stroke-width="1"/><path d="M5.1,1567.109H-12" transform="translate(575 -1181)" fill="none" stroke="#000" stroke-width="1"/><path d="M-12,1567.109H5.1" transform="translate(497 -1181)" fill="none" stroke="#000" stroke-width="1"/><path d="M5.1,1567.109H-12" transform="translate(575 -1181)" fill="none" stroke="#000" stroke-width="1"/><path d="M-12,1567.109H5.1" transform="translate(479 -1166)" fill="none" stroke="#000" stroke-width="1"/><path d="M5.1,1567.109H-12" transform="translate(593 -1166)" fill="none" stroke="#000" stroke-width="1"/><circle cx="4" cy="4" r="4" transform="translate(489 401)" fill="#fff"/><ellipse cx="4" cy="4" rx="4" ry="4" transform="translate(568.098 401)" fill="#fff"/><circle cx="4" cy="4" r="4" transform="translate(489 370)" fill="#fff"/><ellipse cx="4" cy="4" rx="4" ry="4" transform="translate(568.098 370)" fill="#fff"/><circle cx="4" cy="4" r="4" transform="translate(472 385)" fill="#fff"/><ellipse cx="4" cy="4" rx="4" ry="4" transform="translate(585.098 385)" fill="#fff"/><g transform="translate(505 366)" stroke="#000" stroke-width="1"><rect width="3" height="53" stroke="none"/><rect x="0.5" y="0.5" width="2" height="52" fill="none"/></g><g transform="translate(548 366)" stroke="#000" stroke-width="1"><rect width="3" height="56" stroke="none"/><rect x="0.5" y="0.5" width="2" height="55" fill="none"/></g><g transform="translate(517 366)" stroke="#000" stroke-width="1"><rect width="3" height="53" stroke="none"/><rect x="0.5" y="0.5" width="2" height="52" fill="none"/></g><g transform="translate(560 366)" stroke="#000" stroke-width="1"><rect width="3" height="56" stroke="none"/><rect x="0.5" y="0.5" width="2" height="55" fill="none"/></g><g transform="translate(511 366)" stroke="#000" stroke-width="1"><rect width="3" height="53" stroke="none"/><rect x="0.5" y="0.5" width="2" height="52" fill="none"/></g><g transform="translate(554 366)" stroke="#000" stroke-width="1"><rect width="3" height="56" stroke="none"/><rect x="0.5" y="0.5" width="2" height="55" fill="none"/></g><g transform="translate(532 366)" stroke="#000" stroke-width="1"><rect width="3" height="16" stroke="none"/><rect x="0.5" y="0.5" width="2" height="15" fill="none"/></g><g transform="translate(537 366)" stroke="#000" stroke-width="1"><rect width="3" height="16" stroke="none"/><rect x="0.5" y="0.5" width="2" height="15" fill="none"/></g><g transform="translate(542 366)" stroke="#000" stroke-width="1"><rect width="3" height="16" stroke="none"/><rect x="0.5" y="0.5" width="2" height="15" fill="none"/></g><g transform="translate(527 366)" stroke="#000" stroke-width="1"><rect width="3" height="16" stroke="none"/><rect x="0.5" y="0.5" width="2" height="15" fill="none"/></g><g transform="translate(522 366)" stroke="#000" stroke-width="1"><rect width="3" height="16" stroke="none"/><rect x="0.5" y="0.5" width="2" height="15" fill="none"/></g><path d="M-.912,1618.482s-6.64-.582-21.236,4.474-19.995,9.69-37.529,17.226-32.607,12.92-32.607,12.92" transform="translate(382.297 -1200.206) rotate(-3)" fill="none" stroke="#000" stroke-width="2"/><path d="M-.912,1618.482s-6.64-.582-21.236,4.474-19.995,9.69-37.529,17.226-32.607,12.92-32.607,12.92" transform="translate(394.297 -1196.206) rotate(-3)" fill="none" stroke="#000" stroke-width="2"/><path d="M-92.283,1619.96s6.26-2.06,20.856,3,19.995,9.69,37.529,17.226,32.607,12.92,32.607,12.92" transform="translate(1079.473 -1129.075) rotate(14)" fill="none" stroke="#000" stroke-width="2"/><path d="M-92.283,1619.96s6.26-2.06,20.856,3,19.995,9.69,37.529,17.226,32.607,12.92,32.607,12.92" transform="translate(1075.473 -1123.075) rotate(14)" fill="none" stroke="#000" stroke-width="2"/><path d="M36,1658v5" transform="translate(403.29 -1286)" fill="none" stroke="#606060" stroke-width="1"/><path d="M36,1658v5" transform="translate(585 -1286)" fill="#5e2323" stroke="#606060" stroke-width="1"/><path d="M9,0l9,19H0Z" transform="translate(430.29 394)" fill="#5e2323"/><path d="M9,0l9,19H0Z" transform="translate(612 394)" fill="#5e2323"/><path d="M9,0l9,19H0Z" transform="translate(448.29 396) rotate(180)" fill="#5e2323"/><path d="M9,0l9,19H0Z" transform="translate(630 396) rotate(180)" fill="#5e2323"/><path d="M31.067,1699v13.46" transform="translate(413.156 -1286)" fill="#5e2323" stroke="#5e2323" stroke-width="1"/><path d="M31.067,1699v13.46" transform="translate(585 -1286)" fill="#5e2323" stroke="#5e2323" stroke-width="1"/><path d="M31.067,1699v13.46" transform="translate(403.922 -1286)" fill="#5e2323" stroke="#5e2323" stroke-width="1"/><path d="M31.067,1699v13.46" transform="translate(594.234 -1286)" fill="#5e2323" stroke="#5e2323" stroke-width="1"/><g transform="translate(441.766 422.303)"><path d="M0,3.363,6.239,2.1,6.782,0,.543,1.267Z" transform="translate(5.813 7.058) rotate(-149)" fill="#5e2323"/><path d="M0,3.363,6.239,2.1,6.782,0,.543,1.267Z" transform="translate(7.064 7.058) rotate(-149)" fill="#5e2323"/><path d="M0,3.363,6.239,2.1,6.782,0,.543,1.267Z" transform="translate(7.064 6.376) rotate(-149)" fill="#5e2323"/></g><g transform="translate(609.727 422.303)"><path d="M0,0,6.239,1.267l.543,2.1L.543,2.1Z" transform="translate(1.251 4.176) rotate(-31)" fill="#5e2323"/><path d="M0,0,6.239,1.267l.543,2.1L.543,2.1Z" transform="translate(0 4.176) rotate(-31)" fill="#5e2323"/><path d="M0,0,6.239,1.267l.543,2.1L.543,2.1Z" transform="translate(0 3.493) rotate(-31)" fill="#5e2323"/></g><g transform="translate(432.766 423.303)"><path d="M0,3.363,6.239,2.1,6.782,0,.543,1.267Z" transform="translate(5.813 7.058) rotate(-149)" fill="#5e2323"/><path d="M0,3.363,6.239,2.1,6.782,0,.543,1.267Z" transform="translate(7.064 7.058) rotate(-149)" fill="#5e2323"/><path d="M0,3.363,6.239,2.1,6.782,0,.543,1.267Z" transform="translate(7.064 6.376) rotate(-149)" fill="#5e2323"/></g><g transform="translate(618.727 423.303)"><path d="M0,0,6.239,1.267l.543,2.1L.543,2.1Z" transform="translate(1.251 4.176) rotate(-31)" fill="#5e2323"/><path d="M0,0,6.239,1.267l.543,2.1L.543,2.1Z" transform="translate(0 4.176) rotate(-31)" fill="#5e2323"/><path d="M0,0,6.239,1.267l.543,2.1L.543,2.1Z" transform="translate(0 3.493) rotate(-31)" fill="#5e2323"/></g><ellipse cx="5" cy="3" rx="5" ry="3" transform="translate(434.29 350)" fill="#d6d3d3"/><ellipse cx="5" cy="3" rx="5" ry="3" transform="translate(616 350)" fill="#d6d3d3"/><ellipse cx="10" cy="9.5" rx="10" ry="9.5" transform="translate(429.29 353)" fill="#5e2323"/><ellipse cx="10" cy="9.5" rx="10" ry="9.5" transform="translate(611 353)" fill="#5e2323"/><g transform="translate(438.29 355)" fill="none" stroke="#d6d3d3" stroke-width="1"><ellipse cx="1" cy="1" rx="1" ry="1" stroke="none"/><ellipse cx="1" cy="1" rx="0.5" ry="0.5" fill="none"/></g><g transform="translate(620 355)" fill="none" stroke="#d6d3d3" stroke-width="1"><ellipse cx="1" cy="1" rx="1" ry="1" stroke="none"/><ellipse cx="1" cy="1" rx="0.5" ry="0.5" fill="none"/></g><ellipse cx="3" cy="0.5" rx="3" ry="0.5" transform="translate(432.29 379)" fill="#606060"/><ellipse cx="3" cy="0.5" rx="3" ry="0.5" transform="translate(622 379)"/><ellipse cx="3" cy="0.5" rx="3" ry="0.5" transform="translate(432.29 378)" fill="#606060"/><ellipse cx="3" cy="0.5" rx="3" ry="0.5" transform="translate(622 378)"/><ellipse cx="3" cy="0.5" rx="3" ry="0.5" transform="translate(440.29 379)" fill="#606060"/><ellipse cx="3" cy="0.5" rx="3" ry="0.5" transform="translate(614 379)"/><ellipse cx="3" cy="0.5" rx="3" ry="0.5" transform="translate(440.29 378)" fill="#606060"/><ellipse cx="3" cy="0.5" rx="3" ry="0.5" transform="translate(614 378)"/><ellipse cx="3" cy="0.5" rx="3" ry="0.5" transform="translate(436.29 378)" fill="#606060"/><ellipse cx="3" cy="0.5" rx="3" ry="0.5" transform="translate(618 378)"/><ellipse cx="3" cy="0.5" rx="3" ry="0.5" transform="translate(436.29 377)" fill="#606060"/><ellipse cx="3" cy="0.5" rx="3" ry="0.5" transform="translate(618 377)"/><g transform="translate(441.29 381) rotate(180)" fill="none"><path d="M1.5,0,3,2H0Z" stroke="none"/><path d="M 1.5 0 L 3 2 L 0 2 L 1.5 0 Z" stroke="none" fill="#848484"/></g><g transform="translate(622 381) rotate(180)" fill="none"><path d="M1.5,0,3,2H0Z" stroke="none"/><path d="M 1.499999284744263 4.76837158203125e-07 L 2.999999284744263 2.000000476837158 L -7.152557373046875e-07 2.000000476837158 L 1.499999284744263 4.76837158203125e-07 Z" stroke="none" fill="#7a7a7a"/></g><g transform="translate(442.29 381)" fill="none"><path d="M1.5,0,3,2H0Z" stroke="none"/><path d="M 1.5 -8.344650268554688e-07 L 3 1.999999284744263 L 0 1.999999284744263 L 1.5 -8.344650268554688e-07 Z" stroke="none"/></g><g transform="translate(615 381)" fill="none"><path d="M1.5,0,3,2H0Z" stroke="none"/><path d="M 1.499999284744263 -3.576278686523438e-07 L 2.999999284744263 1.999999642372131 L -7.152557373046875e-07 1.999999642372131 L 1.499999284744263 -3.576278686523438e-07 Z" stroke="none"/></g><g transform="translate(434.29 381)" fill="none"><path d="M1.5,0,3,2H0Z" stroke="none"/><path d="M 1.5 -8.344650268554688e-07 L 3 1.999999284744263 L 0 1.999999284744263 L 1.5 -8.344650268554688e-07 Z" stroke="none"/></g><g transform="translate(623 381)" fill="none"><path d="M1.5,0,3,2H0Z" stroke="none"/><path d="M 1.499999284744263 -3.576278686523438e-07 L 2.999999284744263 1.999999642372131 L -7.152557373046875e-07 1.999999642372131 L 1.499999284744263 -3.576278686523438e-07 Z" stroke="none"/></g><g transform="translate(438.29 380)" fill="none"><path d="M1.5,0,3,2H0Z" stroke="none"/><path d="M 1.5 -8.344650268554688e-07 L 3 1.999999284744263 L 0 1.999999284744263 L 1.5 -8.344650268554688e-07 Z" stroke="none" fill="#848484"/></g><g transform="translate(619 380)" fill="none"><path d="M1.5,0,3,2H0Z" stroke="none"/><path d="M 1.499999284744263 -3.576278686523438e-07 L 2.999999284744263 1.999999642372131 L -7.152557373046875e-07 1.999999642372131 L 1.499999284744263 -3.576278686523438e-07 Z" stroke="none" fill="#7a7a7a"/></g><g transform="translate(438.29 381)" fill="none"><path d="M1.5,0,3,2H0Z" stroke="none"/><path d="M 1.5 -8.344650268554688e-07 L 3 1.999999284744263 L 0 1.999999284744263 L 1.5 -8.344650268554688e-07 Z" stroke="none" fill="#848484"/></g><g transform="translate(619 381)" fill="none"><path d="M1.5,0,3,2H0Z" stroke="none"/><path d="M 1.499999284744263 -3.576278686523438e-07 L 2.999999284744263 1.999999642372131 L -7.152557373046875e-07 1.999999642372131 L 1.499999284744263 -3.576278686523438e-07 Z" stroke="none" fill="#7a7a7a"/></g><g transform="translate(438.29 382)" fill="none"><path d="M1.5,0,3,2H0Z" stroke="none"/><path d="M 1.5 -8.344650268554688e-07 L 3 1.999999284744263 L 0 1.999999284744263 L 1.5 -8.344650268554688e-07 Z" stroke="none" fill="#848484"/></g><g transform="translate(619 382)" fill="none"><path d="M1.5,0,3,2H0Z" stroke="none"/><path d="M 1.499999284744263 -3.576278686523438e-07 L 2.999999284744263 1.999999642372131 L -7.152557373046875e-07 1.999999642372131 L 1.499999284744263 -3.576278686523438e-07 Z" stroke="none" fill="#7a7a7a"/></g><g transform="translate(438.29 383)" fill="none"><path d="M1.5,0,3,2H0Z" stroke="none"/><path d="M 1.5 -8.344650268554688e-07 L 3 1.999999284744263 L 0 1.999999284744263 L 1.5 -8.344650268554688e-07 Z" stroke="none" fill="#848484"/></g><g transform="translate(619 383)" fill="none"><path d="M1.5,0,3,2H0Z" stroke="none"/><path d="M 1.499999284744263 -3.576278686523438e-07 L 2.999999284744263 1.999999642372131 L -7.152557373046875e-07 1.999999642372131 L 1.499999284744263 -3.576278686523438e-07 Z" stroke="none" fill="#7a7a7a"/></g><g transform="translate(440.29 381) rotate(180)" fill="none"><path d="M1.5,0,3,2H0Z" stroke="none"/><path d="M 1.5 0 L 3 2 L 0 2 L 1.5 0 Z" stroke="none" fill="#848484"/></g><g transform="translate(623 381) rotate(180)" fill="none"><path d="M1.5,0,3,2H0Z" stroke="none"/><path d="M 1.499999284744263 4.76837158203125e-07 L 2.999999284744263 2.000000476837158 L -7.152557373046875e-07 2.000000476837158 L 1.499999284744263 4.76837158203125e-07 Z" stroke="none" fill="#7a7a7a"/></g><g transform="translate(441.29 381)" fill="none"><path d="M1.5,0,3,2H0Z" stroke="none"/><path d="M 1.5 -8.344650268554688e-07 L 3 1.999999284744263 L 0 1.999999284744263 L 1.5 -8.344650268554688e-07 Z" stroke="none"/></g><g transform="translate(616 381)" fill="none"><path d="M1.5,0,3,2H0Z" stroke="none"/><path d="M 1.499999284744263 -3.576278686523438e-07 L 2.999999284744263 1.999999642372131 L -7.152557373046875e-07 1.999999642372131 L 1.499999284744263 -3.576278686523438e-07 Z" stroke="none"/></g><g transform="translate(433.29 381)" fill="none"><path d="M1.5,0,3,2H0Z" stroke="none"/><path d="M 1.5 -8.344650268554688e-07 L 3 1.999999284744263 L 0 1.999999284744263 L 1.5 -8.344650268554688e-07 Z" stroke="none"/></g><g transform="translate(624 381)" fill="none"><path d="M1.5,0,3,2H0Z" stroke="none"/><path d="M 1.499999284744263 -3.576278686523438e-07 L 2.999999284744263 1.999999642372131 L -7.152557373046875e-07 1.999999642372131 L 1.499999284744263 -3.576278686523438e-07 Z" stroke="none"/></g><g transform="translate(437.29 380)" fill="none"><path d="M1.5,0,3,2H0Z" stroke="none"/><path d="M 1.5 -8.344650268554688e-07 L 3 1.999999284744263 L 0 1.999999284744263 L 1.5 -8.344650268554688e-07 Z" stroke="none" fill="#848484"/></g><g transform="translate(620 380)" fill="none"><path d="M1.5,0,3,2H0Z" stroke="none"/><path d="M 1.499999284744263 -3.576278686523438e-07 L 2.999999284744263 1.999999642372131 L -7.152557373046875e-07 1.999999642372131 L 1.499999284744263 -3.576278686523438e-07 Z" stroke="none" fill="#7a7a7a"/></g><g transform="translate(437.29 381)" fill="none"><path d="M1.5,0,3,2H0Z" stroke="none"/><path d="M 1.5 -8.344650268554688e-07 L 3 1.999999284744263 L 0 1.999999284744263 L 1.5 -8.344650268554688e-07 Z" stroke="none" fill="#848484"/></g><g transform="translate(620 381)" fill="none"><path d="M1.5,0,3,2H0Z" stroke="none"/><path d="M 1.499999284744263 -3.576278686523438e-07 L 2.999999284744263 1.999999642372131 L -7.152557373046875e-07 1.999999642372131 L 1.499999284744263 -3.576278686523438e-07 Z" stroke="none" fill="#7a7a7a"/></g><g transform="translate(437.29 382)" fill="none"><path d="M1.5,0,3,2H0Z" stroke="none"/><path d="M 1.5 -8.344650268554688e-07 L 3 1.999999284744263 L 0 1.999999284744263 L 1.5 -8.344650268554688e-07 Z" stroke="none" fill="#848484"/></g><g transform="translate(620 382)" fill="none"><path d="M1.5,0,3,2H0Z" stroke="none"/><path d="M 1.499999284744263 -3.576278686523438e-07 L 2.999999284744263 1.999999642372131 L -7.152557373046875e-07 1.999999642372131 L 1.499999284744263 -3.576278686523438e-07 Z" stroke="none" fill="#7a7a7a"/></g><g transform="translate(437.29 383)" fill="none"><path d="M1.5,0,3,2H0Z" stroke="none"/><path d="M 1.5 -8.344650268554688e-07 L 3 1.999999284744263 L 0 1.999999284744263 L 1.5 -8.344650268554688e-07 Z" stroke="none" fill="#848484"/></g><g transform="translate(620 383)" fill="none"><path d="M1.5,0,3,2H0Z" stroke="none"/><path d="M 1.499999284744263 -3.576278686523438e-07 L 2.999999284744263 1.999999642372131 L -7.152557373046875e-07 1.999999642372131 L 1.499999284744263 -3.576278686523438e-07 Z" stroke="none" fill="#7a7a7a"/></g><g transform="translate(438.29 381)" fill="none" stroke="#000" stroke-width="1"><rect width="2" height="4" stroke="none"/><rect x="0.5" y="0.5" width="1" height="3" fill="none"/></g><g transform="translate(620 381)" fill="none" stroke="#000" stroke-width="1"><rect width="2" height="4" stroke="none"/><rect x="0.5" y="0.5" width="1" height="3" fill="none"/></g><g transform="translate(440.29 387)" fill="none" stroke="#000" stroke-width="1"><ellipse cx="1" cy="1" rx="1" ry="1" stroke="none"/><ellipse cx="1" cy="1" rx="0.5" ry="0.5" fill="none"/></g><g transform="translate(618 387)" fill="none" stroke="#000" stroke-width="1"><ellipse cx="1" cy="1" rx="1" ry="1" stroke="none"/><ellipse cx="1" cy="1" rx="0.5" ry="0.5" fill="none"/></g><g transform="translate(436.29 387)" fill="none" stroke="#000" stroke-width="1"><ellipse cx="1" cy="1" rx="1" ry="1" stroke="none"/><ellipse cx="1" cy="1" rx="0.5" ry="0.5" fill="none"/></g><g transform="translate(622 387)" fill="none" stroke="#000" stroke-width="1"><ellipse cx="1" cy="1" rx="1" ry="1" stroke="none"/><ellipse cx="1" cy="1" rx="0.5" ry="0.5" fill="none"/></g><g transform="translate(438.29 386)" fill="none" stroke="#000" stroke-width="1"><ellipse cx="1" cy="1" rx="1" ry="1" stroke="none"/><ellipse cx="1" cy="1" rx="0.5" ry="0.5" fill="none"/></g><g transform="translate(620 386)" fill="none" stroke="#000" stroke-width="1"><ellipse cx="1" cy="1" rx="1" ry="1" stroke="none"/><ellipse cx="1" cy="1" rx="0.5" ry="0.5" fill="none"/></g><g transform="translate(439.29 388)" fill="none" stroke="#000" stroke-width="1"><ellipse cx="1" cy="1" rx="1" ry="1" stroke="none"/><ellipse cx="1" cy="1" rx="0.5" ry="0.5" fill="none"/></g><g transform="translate(619 388)" fill="none" stroke="#000" stroke-width="1"><ellipse cx="1" cy="1" rx="1" ry="1" stroke="none"/><ellipse cx="1" cy="1" rx="0.5" ry="0.5" fill="none"/></g><g transform="translate(437.29 388)" fill="none" stroke="#000" stroke-width="1"><ellipse cx="1" cy="1" rx="1" ry="1" stroke="none"/><ellipse cx="1" cy="1" rx="0.5" ry="0.5" fill="none"/></g><g transform="translate(621 388)" fill="none" stroke="#000" stroke-width="1"><ellipse cx="1" cy="1" rx="1" ry="1" stroke="none"/><ellipse cx="1" cy="1" rx="0.5" ry="0.5" fill="none"/></g><g transform="translate(438.29 389)" fill="none" stroke="#000" stroke-width="1"><ellipse cx="1" cy="1" rx="1" ry="1" stroke="none"/><ellipse cx="1" cy="1" rx="0.5" ry="0.5" fill="none"/></g><g transform="translate(620 389)" fill="none" stroke="#000" stroke-width="1"><ellipse cx="1" cy="1" rx="1" ry="1" stroke="none"/><ellipse cx="1" cy="1" rx="0.5" ry="0.5" fill="none"/></g><g transform="translate(438.29 402)"><path d="M1,0,2,3H0Z" transform="translate(0 0)"/><path d="M1,0,2,3H0Z" transform="translate(2 6) rotate(180)"/></g><g transform="translate(620 402)"><path d="M1,0,2,3H0Z" transform="translate(0 0)"/><path d="M1,0,2,3H0Z" transform="translate(2 6) rotate(180)"/></g><g transform="translate(440.29 401)"><path d="M1,0,2,3H0Z" transform="translate(0 0)"/><path d="M1,0,2,3H0Z" transform="translate(2 6) rotate(180)"/></g><g transform="translate(618 401)"><path d="M1,0,2,3H0Z" transform="translate(0 0)"/><path d="M1,0,2,3H0Z" transform="translate(2 6) rotate(180)"/></g><g transform="translate(432.29 407)"><path d="M1,0,2,3H0Z" transform="translate(0 0)"/><path d="M1,0,2,3H0Z" transform="translate(2 6) rotate(180)"/></g><g transform="translate(626 407)"><path d="M1,0,2,3H0Z" transform="translate(0 0)"/><path d="M1,0,2,3H0Z" transform="translate(2 6) rotate(180)"/></g><g transform="translate(435.29 407)"><path d="M1,0,2,3H0Z" transform="translate(0 0)"/><path d="M1,0,2,3H0Z" transform="translate(2 6) rotate(180)"/></g><g transform="translate(623 407)"><path d="M1,0,2,3H0Z" transform="translate(0 0)"/><path d="M1,0,2,3H0Z" transform="translate(2 6) rotate(180)"/></g><g transform="translate(437.29 397)"><path d="M1,0,2,3H0Z" transform="translate(0 0)"/><path d="M1,0,2,3H0Z" transform="translate(2 6) rotate(180)"/></g><g transform="translate(621 397)"><path d="M1,0,2,3H0Z" transform="translate(0 0)"/><path d="M1,0,2,3H0Z" transform="translate(2 6) rotate(180)"/></g><g transform="translate(436.29 401)"><path d="M1,0,2,3H0Z" transform="translate(0 0)"/><path d="M1,0,2,3H0Z" transform="translate(2 6) rotate(180)"/></g><g transform="translate(622 401)"><path d="M1,0,2,3H0Z" transform="translate(0 0)"/><path d="M1,0,2,3H0Z" transform="translate(2 6) rotate(180)"/></g><g transform="translate(434.29 403)"><path d="M1,0,2,3H0Z" transform="translate(0 0)"/><path d="M1,0,2,3H0Z" transform="translate(2 6) rotate(180)"/></g><g transform="translate(624 403)"><path d="M1,0,2,3H0Z" transform="translate(0 0)"/><path d="M1,0,2,3H0Z" transform="translate(2 6) rotate(180)"/></g><g transform="translate(442.29 403)"><path d="M1,0,2,3H0Z" transform="translate(0 0)"/><path d="M1,0,2,3H0Z" transform="translate(2 6) rotate(180)"/></g><g transform="translate(616 403)"><path d="M1,0,2,3H0Z" transform="translate(0 0)"/><path d="M1,0,2,3H0Z" transform="translate(2 6) rotate(180)"/></g><g transform="translate(440.29 407)"><path d="M1,0,2,3H0Z" transform="translate(0 0)"/><path d="M1,0,2,3H0Z" transform="translate(2 6) rotate(180)"/></g><g transform="translate(618 407)"><path d="M1,0,2,3H0Z" transform="translate(0 0)"/><path d="M1,0,2,3H0Z" transform="translate(2 6) rotate(180)"/></g><g transform="translate(437.29 407)"><path d="M1,0,2,3H0Z" transform="translate(0 0)"/><path d="M1,0,2,3H0Z" transform="translate(2 6) rotate(180)"/></g><g transform="translate(621 407)"><path d="M1,0,2,3H0Z" transform="translate(0 0)"/><path d="M1,0,2,3H0Z" transform="translate(2 6) rotate(180)"/></g><g transform="translate(444.29 407)"><path d="M1,0,2,3H0Z" transform="translate(0 0)"/><path d="M1,0,2,3H0Z" transform="translate(2 6) rotate(180)"/></g><g transform="translate(614 407)"><path d="M1,0,2,3H0Z" transform="translate(0 0)"/><path d="M1,0,2,3H0Z" transform="translate(2 6) rotate(180)"/></g><g transform="translate(439.29 397)"><path d="M1,0,2,3H0Z" transform="translate(0 0)"/><path d="M1,0,2,3H0Z" transform="translate(2 6) rotate(180)"/></g><g transform="translate(619 397)"><path d="M1,0,2,3H0Z" transform="translate(0 0)"/><path d="M1,0,2,3H0Z" transform="translate(2 6) rotate(180)"/></g><path d="M32.29,1663.651l3.567,10.2-12.424-3.131" transform="translate(415 -1286)" fill="none" stroke="#000" stroke-width="1"/><path d="M27,1663.651l-3.567,10.2,12.424-3.131" transform="translate(404 -1286)" fill="none" stroke="#000" stroke-width="1"/><path d="M27,1663.651l-3.567,10.2,12.424-3.131" transform="translate(586 -1286)" fill="none" stroke="#000" stroke-width="1"/><path d="M32.29,1663.651l3.567,10.2-12.424-3.131" transform="translate(597 -1286)" fill="none" stroke="#000" stroke-width="1"/></g><text transform="translate(349 337)" font-size="115" font-family="TempusSansITC, Tempus Sans ITC"><tspan x="0" y="0">The</tspan></text><text transform="translate(349 543)" font-size="115" font-family="TempusSansITC, Tempus Sans ITC"><tspan x="0" y="0">Shop</tspan></text><text transform="translate(266 435)" font-size="115" font-family="TempusSansITC, Tempus Sans ITC"><tspan x="0" y="0">Tribe</tspan></text></g></svg>