<svg xmlns="http://www.w3.org/2000/svg" width="91" height="91" viewBox="0 0 91 91"><g transform="translate(-233 -140)"><circle cx="45.5" cy="45.5" r="45.5" transform="translate(233 140)"/><g transform="translate(234 140.6)"><path d="M45,28.4c-14.5,0-26.8,13-30,16.6,3.2,3.7,15.6,16.6,30,16.6,14.5,0,26.8-13,30-16.6C71.8,41.3,59.5,28.4,45,28.4Zm0,31.3A14.7,14.7,0,1,1,59.7,45,14.724,14.724,0,0,1,45,59.7Z" fill="#fff"/><path d="M45,33.3A11.7,11.7,0,1,0,56.7,45,11.715,11.715,0,0,0,45,33.3Z" fill="#fff"/></g></g></svg>